# xmcd CD database file
#
# Track frame offsets:
#	150
#	14437
#	29118
#	42018
#	55615
#	71783
#	85306
#	100555
#	115220
#	139479
#	153856
#	164458
#	182338
#	192399
#	206294
#	222164
#	234511
#	245996
#	256465
#	266465
#	278013
#	288478
#	300392
#	318068
#	328781
#	341865
#
# Disc length: 4744 seconds
#
# Revision: 1
# Processed by: cddbd v1.5.2PL0 Copyright (c) Steve Scherf et al.
# Submitted via: CDex 1.77
#
DISCID=7c12861a
DTITLE=Chet Atkins - Bets of
DYEAR=1900
DGENRE=Blues
TTITLE0=Joanie C Beeson \When she Smiled At Him
TTITLE1=Chet Atkins and Jerry Reed \
TTITLE2=Jango Reinhardt \ Limehouse Blues
TTITLE3=Chet Atkins and Les Paul \ Lazy River
TTITLE4=Chet Atkins and Les Paul \ It Had to be You
TTITLE5=Chet Atkins and Les Paul \ It dont mean a thing
TTITLE6=Chet Atkins and Les Paul \ Caravan
TTITLE7=Lenny Breau \ 
TTITLE8=Lenny Breau \ Georga On My Mnd
TTITLE9=Chet Atkins and Jerry Reed \Tennesee Stud
TTITLE10=Chet Atkins and Jerry Reed \ Stump Water
TTITLE11=Chet Atkins and Jerry Reed \ Majr attempt at a minor thing
TTITLE12=Chet Atkins and Jerry Reed \ Jerry's Breakdown
TTITLE13=Chet Atkins and Doc Watson \ Freight Train Boogie
TTITLE14=Chet Atkins and Doc Watson \ Dont Monkey 'Round my Widder
TTITLE15=Chet Atkins \ Take Five
TTITLE16=Chet Atkins \ Sleep Walk
TTITLE17=Chet Atkins \ Mister Sandman
TTITLE18=Chet Atkins \ Memphis Blues
TTITLE19=Chet Atkins \ Galloping On The Guitar
TTITLE20=Chet Atkins \ 
TTITLE21=Chet Atkins and Doc Watson \ Dill pikle
TTITLE22=Chet Atkins \ Classical Gas
TTITLE23=Chet ATkins and Doc Watson \
TTITLE24=Chet Atkins \ Abilene
TTITLE25=Chet Atkins \ The Birth Of The Blues
EXTD=
EXTT0=
EXTT1=
EXTT2=
EXTT3=
EXTT4=
EXTT5=
EXTT6=
EXTT7=
EXTT8=
EXTT9=
EXTT10=
EXTT11=
EXTT12=
EXTT13=
EXTT14=
EXTT15=
EXTT16=
EXTT17=
EXTT18=
EXTT19=
EXTT20=
EXTT21=
EXTT22=
EXTT23=
EXTT24=
EXTT25=
PLAYORDER=
